<svg width="139" height="16" viewBox="0 0 139 16" fill="none" xmlns="http://www.w3.org/2000/svg">
<path d="M51.0577 1.03115C50.9963 1.08473 50.981 1.09834 50.8169 1.22814C50.7221 1.30316 50.5617 1.35453 50.4403 1.35453C50.1616 1.35453 49.9357 1.13075 49.9357 0.854654V0.403084L49.939 0.36617H49.9357V0.36481H46.8013L46.8018 0.36617H45.2899V15.6166H50.2162V9.0994C50.2162 7.54379 50.203 6.1714 51.1883 5.25636C51.8348 4.67678 53.1104 4.34131 54.4652 4.34131C54.8037 4.34131 55.0809 4.34131 55.3889 4.37168V0H55.0502C53.4316 0 52.0553 0.217234 51.0577 1.03106V1.03115ZM40.6651 2.23675C39.6037 1.32128 38.2013 0.59004 36.6098 0.122311L36.1937 8.56593e-05L35.3801 1.19531L35.7248 1.5369C36.6073 2.41171 38.0881 4.41361 38.0881 7.99222C38.0881 11.589 36.6309 13.5934 35.7622 14.4681L35.4252 14.8075L36.2264 15.9999L36.6424 15.8814C38.2207 15.432 39.614 14.7146 40.6717 13.8071C42.3887 12.3336 43.2593 10.3876 43.2593 8.02301C43.2593 5.65842 42.3866 3.72142 40.6652 2.23666L40.6651 2.23675ZM19.5138 0.0104608L19.5203 0.000168723C19.4542 0.000168723 19.3934 0.00144466 19.3316 0.00238029C19.3145 0.00221018 19.2986 0.000168723 19.2815 0.000168723C18.7083 0.000168723 18.1771 0.0688956 17.6841 0.205582C17.6747 0.207709 17.666 0.209494 17.6565 0.211706C17.3362 0.285195 16.4042 0.564863 15.6329 1.20126C15.434 1.36533 15.327 1.4794 15.1147 1.66023C14.9093 1.83527 14.6663 1.9604 14.3954 1.9604H14.3808C14.0863 1.9604 13.8194 1.8209 13.6151 1.61064C13.4798 1.4714 13.3545 1.34671 13.2261 1.23094C12.4264 0.393303 11.3566 0.000168723 9.9523 0.000168723C9.21586 0.000168723 8.56023 0.110488 7.97594 0.329851C7.34048 0.510427 6.72589 0.777335 6.14435 1.13449C6.06003 1.18842 5.97864 1.24464 5.89904 1.30231C5.82632 1.35513 5.73084 1.38549 5.63073 1.38549C5.41736 1.38549 5.24444 1.2528 5.24444 1.08916V0.395769H5.24152V0.366256H0.5V15.6167H5.42629V6.89345C5.42629 4.84987 6.2576 3.72133 7.76635 3.72133C9.12099 3.72133 9.79843 4.66683 9.79843 6.64942V15.6167H14.7247V6.863C14.7247 4.81942 15.5252 3.72133 17.0339 3.72133C18.4194 3.72133 19.066 4.63646 19.066 6.67996V15.6167H24.0231V5.64285C24.0231 2.16929 22.3568 0.117548 19.5138 0.0104608ZM33.8209 1.19531L33.0072 8.56593e-05L32.5912 0.122311C30.9996 0.59004 29.5973 1.32119 28.5358 2.23675C26.8145 3.7215 25.9417 5.66829 25.9417 8.02309C25.9417 10.3779 26.8124 12.3336 28.5294 13.8071C29.587 14.7147 30.9803 15.4321 32.5586 15.8815L32.9747 16L33.7759 14.8076L33.4389 14.4682C32.5702 13.5935 31.113 11.589 31.113 7.9923C31.113 4.41361 32.5937 2.41179 33.4763 1.53698L33.821 1.19539L33.8209 1.19531ZM64.3298 8.56593e-05C59.5266 8.56593e-05 56.5093 3.14175 56.5093 8.14387C56.5093 13.0851 59.619 15.9827 64.6685 15.9827C67.8704 15.9827 70.4877 14.4881 71.7193 11.987L68.086 10.34C67.3779 11.743 66.2386 12.475 64.7609 12.475C62.6672 12.475 61.2508 11.1635 61.2201 9.08945H71.8732V7.62528C71.8732 2.77558 69.1638 0 64.3299 0L64.3298 8.56593e-05ZM61.2632 5.78499C61.4795 3.96162 62.5 2.89772 64.2374 2.89772C65.9558 2.89772 66.9537 3.90191 67.0848 5.78499H61.2632ZM104.867 8.56593e-05C100.31 8.56593e-05 96.8618 2.71468 96.8618 7.96092C96.8618 13.2072 100.31 15.9827 104.867 15.9827C109.393 15.9827 112.841 13.2072 112.841 7.96092C112.841 2.71468 109.393 8.56593e-05 104.867 8.56593e-05ZM104.867 12.597C102.927 12.597 101.788 11.072 101.788 7.96092C101.788 4.81925 102.927 3.38578 104.867 3.38578C106.776 3.38578 107.915 4.81925 107.915 7.96092C107.915 11.072 106.776 12.597 104.867 12.597ZM133.991 0.0103752L133.997 8.56593e-05C133.931 8.56593e-05 133.87 0.001359 133.808 0.00229463C133.791 0.00212452 133.775 8.56593e-05 133.758 8.56593e-05C133.185 8.56593e-05 132.654 0.0688099 132.161 0.205497C132.152 0.207623 132.143 0.209411 132.133 0.211623C131.813 0.285112 130.881 0.564777 130.11 1.20117C129.911 1.36525 129.804 1.47931 129.592 1.66014C129.386 1.83519 129.143 1.96031 128.872 1.96031H128.858C128.563 1.96031 128.296 1.82082 128.092 1.61056C127.957 1.47123 127.831 1.34654 127.703 1.23078C126.903 0.393219 125.833 8.56593e-05 124.429 8.56593e-05C123.693 8.56593e-05 123.037 0.110403 122.453 0.329765C121.817 0.510341 121.203 0.777252 120.621 1.13441C120.537 1.18833 120.456 1.24455 120.376 1.30222C120.303 1.35504 120.208 1.38541 120.108 1.38541C119.894 1.38541 119.721 1.25272 119.721 1.08907V0.395684H119.718V0.36617H114.977V15.6166H119.903V6.89337C119.903 4.84978 120.735 3.72125 122.243 3.72125C123.598 3.72125 124.275 4.66674 124.275 6.64934V15.6166H129.202V6.86291C129.202 4.81933 130.002 3.72125 131.511 3.72125C132.896 3.72125 133.543 4.63638 133.543 6.67987V15.6166H138.5V5.64277C138.5 2.16921 136.834 0.117462 133.991 0.0103752ZM88.0724 12.3531C86.1019 12.3531 84.9934 10.706 84.9934 7.83894C84.9934 5.18533 86.1326 3.59936 88.0416 3.59936C89.4554 3.59936 90.4446 4.46677 90.7435 6.1173L95.3755 5.12767C94.7254 1.85271 92.0894 8.56593e-05 88.1648 8.56593e-05C83.1153 8.56593e-05 79.9747 3.0197 79.9747 7.99137C79.9747 12.8411 83.2077 15.9827 88.1031 15.9827C91.9168 15.9827 94.7284 13.9772 95.3794 10.7655L90.777 9.73282C90.4835 11.4243 89.5198 12.353 88.0723 12.353L88.0724 12.3531ZM76.161 10.7563C75.4421 10.7563 74.823 11.0141 74.3032 11.5291C73.7828 12.0445 73.5231 12.6579 73.5231 13.3695C73.5231 14.0812 73.7827 14.6951 74.3032 15.21C74.823 15.725 75.4421 15.9827 76.161 15.9827C76.8799 15.9827 77.494 15.7251 78.0047 15.21C78.5153 14.6951 78.7706 14.0817 78.7706 13.3695C78.7706 12.639 78.5153 12.0209 78.0047 11.515C77.494 11.0093 76.8793 10.7563 76.161 10.7563Z" fill="#703EFF"/>
</svg>
